<svg xmlns="http://www.w3.org/2000/svg" viewBox="0 0 1080 1415.91"><defs><style>.cls-1{fill:#1b5e0f;}.cls-2{opacity:0.1;}.cls-3{fill:#666865;}.cls-4{fill:#473f16;}</style></defs><title>Asset 3</title><g id="Layer_2" data-name="Layer 2"><g id="BackGround"><rect class="cls-1" y="827.66" width="1080" height="588.26"/><rect class="cls-2" y="827.66" width="1080" height="156.21"/><rect class="cls-3" width="1080" height="827.66"/><rect class="cls-2" y="74.47" width="1080" height="21.28"/><rect class="cls-2" y="204.26" width="1080" height="21.28"/><rect class="cls-2" y="334.04" width="1080" height="21.28"/><rect class="cls-2" y="463.83" width="1080" height="21.28"/><rect class="cls-2" y="593.62" width="1080" height="21.28"/><rect class="cls-2" y="723.4" width="1080" height="21.28"/><rect class="cls-2" x="93.06" y="95.74" width="21.28" height="108.51"/><rect class="cls-2" x="286.55" y="95.74" width="21.28" height="108.51"/><rect class="cls-2" x="472.54" y="95.74" width="21.28" height="108.51"/><rect class="cls-2" x="655.53" y="95.74" width="21.28" height="108.51"/><rect class="cls-2" x="822.02" y="95.74" width="21.28" height="108.51"/><rect class="cls-2" x="990.01" y="95.74" width="21.28" height="108.51"/><rect class="cls-2" x="13.42" y="225.53" width="21.28" height="108.51"/><rect class="cls-2" x="206.91" y="225.53" width="21.28" height="108.51"/><rect class="cls-2" x="392.9" y="225.53" width="21.28" height="108.51"/><rect class="cls-2" x="575.89" y="225.53" width="21.28" height="108.51"/><rect class="cls-2" x="742.39" y="225.53" width="21.28" height="108.51"/><rect class="cls-2" x="910.38" y="225.53" width="21.28" height="108.51"/><rect class="cls-2" x="93.06" y="355.32" width="21.28" height="108.51"/><rect class="cls-2" x="286.55" y="355.32" width="21.28" height="108.51"/><rect class="cls-2" x="472.54" y="355.32" width="21.28" height="108.51"/><rect class="cls-2" x="655.53" y="355.32" width="21.28" height="108.51"/><rect class="cls-2" x="822.02" y="355.32" width="21.28" height="108.51"/><rect class="cls-2" x="990.01" y="355.32" width="21.28" height="108.51"/><rect class="cls-2" x="24.06" y="485.11" width="21.28" height="108.51"/><rect class="cls-2" x="217.55" y="485.11" width="21.28" height="108.51"/><rect class="cls-2" x="403.54" y="485.11" width="21.28" height="108.51"/><rect class="cls-2" x="586.53" y="485.11" width="21.28" height="108.51"/><rect class="cls-2" x="753.02" y="485.11" width="21.28" height="108.51"/><rect class="cls-2" x="921.02" y="485.11" width="21.28" height="108.51"/><rect class="cls-2" x="1042.38" y="485.11" width="21.28" height="108.51"/><rect class="cls-2" x="1042.38" y="225.53" width="21.28" height="108.51"/><rect class="cls-2" x="93.06" y="614.89" width="21.28" height="108.51"/><rect class="cls-2" x="286.55" y="614.89" width="21.28" height="108.51"/><rect class="cls-2" x="472.54" y="614.89" width="21.28" height="108.51"/><rect class="cls-2" x="655.53" y="614.89" width="21.28" height="108.51"/><rect class="cls-2" x="822.02" y="614.89" width="21.28" height="108.51"/><rect class="cls-2" x="990.01" y="614.89" width="21.28" height="108.51"/><rect class="cls-2" x="13.42" y="744.68" width="21.28" height="82.98"/><rect class="cls-2" x="206.91" y="744.68" width="21.28" height="82.98"/><rect class="cls-2" x="392.9" y="744.68" width="21.28" height="82.98"/><rect class="cls-2" x="575.89" y="744.68" width="21.28" height="82.98"/><rect class="cls-2" x="742.39" y="744.68" width="21.28" height="82.98"/><rect class="cls-2" x="910.38" y="744.68" width="21.28" height="82.98"/><rect class="cls-2" x="1042.38" y="744.68" width="21.28" height="82.98"/><rect class="cls-4" y="825.71" width="1080" height="39.05"/></g></g></svg>